# xmcd
#
# Track frame offsets: 
#        150
#        11327
#        27132
#        44085
#        53845
#        67320
#        77470
#        91650
#        107652
#        120897
#        135150
#        147645
#
# Disc length: 2188 seconds
#
# Revision: 2
# Processed by: cddbd v1.5.2PL0 Copyright (c) Steve Scherf et al.
# Submitted via: ExactAudioCopy v1.1
#
DISCID=94088a0c
DTITLE=Dale Watson - Christmas Time In Texas
DYEAR=2001
DGENRE=Country
TTITLE0=Honky Tonk Christmas
TTITLE1=Christmas Love
TTITLE2=Christmas Time In Texas
TTITLE3=Santa Bring Her Back
TTITLE4=Christmas Without An Angel
TTITLE5=Christmas With You
TTITLE6=The Christmas Song
TTITLE7=Hot Texas Christmas Day
TTITLE8=Santa And My Semi
TTITLE9=Christmas In Vegas
TTITLE10=Silver Bells
TTITLE11=You Can Call Me Nick
EXTD=
EXTT0=
EXTT1=
EXTT2=
EXTT3=
EXTT4=
EXTT5=
EXTT6=
EXTT7=
EXTT8=
EXTT9=
EXTT10=
EXTT11=
PLAYORDER=
